<svg xmlns="http://www.w3.org/2000/svg" width="1024" height="1024"><path d="M478.027 44.113c-17.34 17.662-50.272 50.85-73.182 73.75-22.909 22.9-45.583 45.462-50.385 50.137-4.801 4.675-11.124 11.488-14.051 15.141-2.926 3.653-6.91 7.624-8.853 8.824-1.943 1.201-5.333 4.751-7.534 7.888-2.201 3.138-6.199 7.345-8.884 9.35-2.752 2.055-6.042 5.75-7.541 8.471-1.994 3.62 13.784-11.665 63.147-61.174 36.193-36.3 79.519-80.138 96.281-97.417 16.761-17.279 33.772-34.604 37.801-38.5 4.029-3.896 7.691-7.216 8.138-7.379.447-.163 9.076 7.948 19.174 18.025 10.099 10.076 39.512 39.599 65.362 65.606 25.85 26.008 50.15 50.38 54 54.162 3.85 3.782 41.2 41.148 83 83.036s88.344 88.154 103.432 102.813c15.088 14.66 62.675 61.758 105.75 104.662 43.075 42.905 78.318 77.69 78.318 77.302 0-.388-2.204-3.317-4.898-6.508-2.694-3.191-19.681-20.538-37.75-38.548A52647.85 52647.85 0 0 1 904 398.435c-23.375-23.415-47.884-47.605-54.464-53.754-6.58-6.15-23.22-22.206-36.976-35.681-13.757-13.475-60.71-60.05-104.34-103.5s-98.2-97.9-121.267-121c-23.067-23.1-48.652-48.862-56.857-57.25C517.854 14.734 514.675 12 512.367 12c-2.37 0-7.768 5.048-34.34 32.113M511 124.127c-1.375 2.24-8.35 9.558-15.5 16.263-7.15 6.704-15.227 14.197-17.949 16.65-2.722 2.453-17.572 17.24-33 32.86-15.428 15.619-74.406 74.794-131.061 131.5C256.834 378.105 200.5 434.625 188.302 447c-12.197 12.375-33.905 34.163-48.239 48.419C125.728 509.674 114 521.674 114 522.085c0 .412.521.922 1.158 1.134.638.213 12.675 11.838 26.75 25.835 14.076 13.997 46.742 46.379 72.592 71.961 25.85 25.583 55.775 55.07 66.5 65.529 10.725 10.458 57.75 56.834 104.5 103.056 46.75 46.222 91.525 90.154 99.5 97.626 7.975 7.472 17.569 17.002 21.32 21.179 3.752 4.177 7.228 7.595 7.725 7.595.497 0 1.555-1.259 2.351-2.798.795-1.539 11.267-12.451 23.271-24.25a54930.806 54930.806 0 0 0 58.329-57.473c20.077-19.811 56.136-55.361 80.13-79 23.994-23.638 47.844-47.017 53-51.952 5.156-4.936 20.399-19.756 33.874-32.935 13.475-13.179 37.1-36.345 52.5-51.482 15.4-15.136 43.575-42.97 62.612-61.854 27.863-27.64 34.297-34.507 33-35.222-.887-.489-31.385-30.734-67.774-67.212a612363.027 612363.027 0 0 0-197.75-198.07C575.215 181.291 516 121.553 516 121.002c0-.551-.562-.99-1.25-.975-.687.015-2.375 1.86-3.75 4.1M297 229.5c0 .275.225.5.5.5s.5-.225.5-.5-.225-.5-.5-.5-.5.225-.5.5m-4.802 3.173c-1.816.895-3.981 2.94-4.811 4.545-1.42 2.746-1.402 2.859.302 1.923.996-.547 3.31-2.602 5.142-4.568 1.832-1.965 3.182-3.563 3-3.55-.182.012-1.817.755-3.633 1.65m-21.895 20.973c-2.309 1.345-4.499 3.437-4.868 4.65-.37 1.212-1.363 2.992-2.208 3.954-.845.962-1.223 1.75-.839 1.75.384 0 2.963-2.119 5.731-4.708 2.768-2.59 5.465-5.515 5.992-6.5.528-.986.831-1.747.674-1.692-.157.055-2.174 1.201-4.482 2.546m-22.528 22.913c-1.499.813-3.186 2.341-3.75 3.394-.564 1.054-1.025 2.203-1.025 2.554s1.207-.311 2.682-1.471c1.474-1.16 3.3-2.993 4.056-4.073.757-1.08 1.237-1.945 1.069-1.923-.169.022-1.533.706-3.032 1.519m-20.37 21.596c-.443.715-.275.883.44.44.635-.392 1.155-.911 1.155-1.154a.442.442 0 0 0-.441-.441c-.243 0-.762.52-1.154 1.155M485 298.046c-4.675.423-13.45 1.72-19.5 2.884-6.05 1.164-20.225 5.224-31.5 9.023-11.275 3.798-25.45 9.103-31.5 11.789-6.05 2.685-18.65 9.315-28 14.732-9.35 5.417-19.7 11.648-23 13.846-3.3 2.198-13.711 9.994-23.135 17.325-9.424 7.33-21.349 17.26-26.5 22.066-5.151 4.806-15.606 15.5-23.235 23.764-7.628 8.264-16.437 18.175-19.574 22.025-3.137 3.85-11.099 14.2-17.692 23-6.594 8.8-14.579 20.05-17.745 25-3.166 4.95-9.598 15.483-14.294 23.407-8.536 14.407-8.536 14.407-3.828 24 2.59 5.276 7.241 13.868 10.336 19.093 3.095 5.225 9.699 14.9 14.675 21.5 4.976 6.6 11.482 15.15 14.458 19 2.975 3.85 8.129 10.15 11.452 14 3.324 3.85 6.277 7.225 6.563 7.5.285.275 4.344 4.755 9.019 9.955s9.311 10.286 10.302 11.302c.991 1.015 8.641 8.02 17 15.565 8.359 7.544 17.74 15.734 20.846 18.198 3.107 2.464 13.682 10.161 23.5 17.104 9.819 6.942 23.927 15.982 31.352 20.088 7.425 4.106 17.1 9.168 21.5 11.249 4.4 2.082 12.05 5.322 17 7.2a1046.5 1046.5 0 0 0 17.5 6.431c4.675 1.658 13.9 4.296 20.5 5.862 6.6 1.566 16.725 3.553 22.5 4.416 5.775.863 16.977 2.097 24.894 2.743 11.074.904 18.109.9 30.5-.016 8.858-.656 20.658-2.055 26.222-3.109 5.564-1.054 14.82-3.05 20.571-4.435 5.75-1.386 14.023-3.671 18.384-5.079 4.361-1.408 13.163-4.583 19.561-7.055 6.397-2.472 17.872-7.679 25.5-11.571 7.627-3.892 17.939-9.461 22.915-12.375 4.976-2.915 14.426-9.249 21-14.075 6.574-4.827 16.903-12.945 22.953-18.041 6.05-5.097 13.025-11.146 15.5-13.444 2.475-2.298 8.694-8.229 13.819-13.181 5.126-4.951 11.876-11.992 15-15.646 3.125-3.654 7.326-8.656 9.336-11.115 2.01-2.459 8.103-10.096 13.54-16.971 5.437-6.875 12.606-16.1 15.93-20.5 3.325-4.4 12.206-17.517 19.736-29.149 7.529-11.632 14.354-21.699 15.165-22.372.811-.673 1.464-1.956 1.452-2.851-.012-.896-.946-2.753-2.075-4.128-1.129-1.375-6.857-9.777-12.728-18.672-5.871-8.895-12.452-19.02-14.623-22.5-2.171-3.48-7.62-11.308-12.107-17.394-4.488-6.086-12.131-15.986-16.985-22-4.854-6.014-12.752-15.209-17.552-20.434-4.8-5.225-14.505-15.193-21.567-22.15-7.063-6.958-18.016-17.001-24.341-22.319-6.325-5.317-18.475-14.425-27-20.24-8.525-5.814-22.25-14.206-30.5-18.648-8.25-4.441-19.05-9.825-24-11.964-4.95-2.139-15.063-5.896-22.474-8.35-7.41-2.453-18.26-5.761-24.111-7.352-5.85-1.591-15.312-3.598-21.026-4.46-5.714-.862-16.914-1.997-24.889-2.522-7.975-.525-19.45-.9-25.5-.835-6.05.065-14.825.464-19.5.886M225 300.5c0 .275.225.5.5.5s.5-.225.5-.5-.225-.5-.5-.5-.5.225-.5.5m-31 31c0 .275.225.5.5.5s.5-.225.5-.5-.225-.5-.5-.5-.5.225-.5.5m-2 1c0 .275.225.5.5.5s.5-.225.5-.5-.225-.5-.5-.5-.5.225-.5.5m-2 3c0 .275.225.5.5.5s.5-.225.5-.5-.225-.5-.5-.5-.5.225-.5.5m-23.286 22.75a25942.452 25942.452 0 0 1-15.013 14.286c-4.071 3.869-7.966 8.144-8.656 9.5-.691 1.355 4.079-2.786 10.6-9.202 6.52-6.416 13.56-13.115 15.643-14.887 2.084-1.772 4.237-4.06 4.785-5.084.549-1.025.83-1.863.625-1.863-.205 0-3.798 3.262-7.984 7.25M140 384.5c0 .275.225.5.5.5s.5-.225.5-.5-.225-.5-.5-.5-.5.225-.5.5m-1 2c0 .275.225.5.5.5s.5-.225.5-.5-.225-.5-.5-.5-.5.225-.5.5m-4 4c0 .275.225.5.5.5s.5-.225.5-.5-.225-.5-.5-.5-.5.225-.5.5m-2 1c0 .275.225.5.5.5s.5-.225.5-.5-.225-.5-.5-.5-.5.225-.5.5m370.5.189c-1.65.214-6.825 1.066-11.5 1.892-4.675.827-10.75 2.205-13.5 3.063-2.75.858-9.718 3.405-15.485 5.659-5.894 2.304-14.236 6.608-19.052 9.83-4.712 3.151-12.113 8.799-16.447 12.549S416.534 435.325 412.743 440c-3.792 4.675-8.486 11.334-10.432 14.798-1.945 3.464-5.068 9.928-6.939 14.366-1.872 4.438-4.552 12.063-5.957 16.944-1.639 5.699-3.015 14.219-3.844 23.81-1.058 12.235-1.056 16.751.011 24.985.715 5.528 2.472 14.448 3.902 19.824 1.431 5.375 4.791 14.357 7.467 19.96 2.676 5.602 6.339 12.352 8.14 15 1.801 2.647 6.004 8.182 9.342 12.3 3.337 4.118 8.417 9.785 11.288 12.592 2.872 2.808 9.172 7.92 14 11.359 4.829 3.44 11.704 7.609 15.279 9.266 3.575 1.656 10.008 4.315 14.295 5.91 4.288 1.594 12.163 3.889 17.5 5.101 7.913 1.796 12.844 2.207 26.705 2.225 15.275.02 18.015-.248 27-2.638 5.5-1.463 13.375-3.874 17.5-5.357 4.125-1.484 11.775-4.966 17-7.738 5.225-2.773 11.511-6.405 13.969-8.073 2.458-1.667 8.007-6.411 12.331-10.543 4.324-4.131 10.056-10.268 12.737-13.637 2.681-3.369 7.719-10.818 11.197-16.553 3.478-5.735 7.738-14.472 9.468-19.414 1.73-4.943 3.854-11.529 4.72-14.637.867-3.107 2.102-10.136 2.745-15.619.883-7.525.892-13.277.037-23.451-.623-7.414-2.031-17.513-3.128-22.44-1.098-4.928-3.362-12.533-5.032-16.9-1.671-4.367-5.293-11.73-8.051-16.361-2.758-4.632-6.855-10.807-9.104-13.723-2.249-2.915-7.757-8.929-12.239-13.364-4.483-4.435-11.975-10.794-16.65-14.131-4.675-3.337-13.45-8.447-19.5-11.355-6.05-2.909-13.791-6.03-17.202-6.936-3.411-.905-9.936-2.304-14.5-3.107-4.564-.803-13.248-1.393-19.298-1.312-6.05.082-12.35.324-14 .538M131 394.5c0 .275.225.5.5.5s.5-.225.5-.5-.225-.5-.5-.5-.5.225-.5.5m-2 1c0 .275.225.5.5.5s.5-.225.5-.5-.225-.5-.5-.5-.5.225-.5.5m-1 2c0 .275.225.5.5.5s.5-.225.5-.5-.225-.5-.5-.5-.5.225-.5.5m-21.232 19.306c-2.602 2.032-6.613 5.872-8.913 8.533-2.3 2.662-6.548 6.587-9.439 8.723-2.891 2.135-22.954 21.678-44.586 43.428-21.631 21.751-39.478 40.468-39.658 41.596-.191 1.187 22.419-20.541 53.75-51.656C87.665 437.893 112 413.562 112 413.363c0-.2-.112-.338-.25-.307-.138.03-2.379 1.718-4.982 3.75m356.556 34.573c-2.297.751-5.741 2.333-7.653 3.515-1.913 1.183-5.036 3.874-6.94 5.982-1.904 2.107-4.975 6.905-6.824 10.662-2.539 5.157-3.455 8.466-3.74 13.513-.289 5.114.09 7.743 1.615 11.189 1.096 2.478 3.731 6.436 5.855 8.795 2.125 2.36 6.193 5.785 9.041 7.612 2.848 1.827 7.228 3.87 9.734 4.541 3.59.96 5.82.958 10.505-.01 3.272-.676 8.461-2.34 11.533-3.698 3.071-1.358 7.55-4.282 9.953-6.498 2.404-2.215 5.327-6.25 6.495-8.967 1.169-2.716 2.406-7.626 2.749-10.91.362-3.463.133-7.92-.544-10.609-.642-2.551-2.281-6.402-3.642-8.558-1.361-2.155-5.059-5.975-8.218-8.488-3.158-2.513-7.53-5.502-9.714-6.642-2.32-1.212-6.476-2.224-10-2.434-3.414-.205-7.84.231-10.205 1.005m-456.97 73.34c.851 1.645 7.082 8.077 13.847 14.293 6.764 6.216 26.746 25.744 44.404 43.395 17.658 17.651 51.86 51.668 76.005 75.593 24.145 23.925 49.539 48.9 56.432 55.5 6.893 6.6 15.441 14.739 18.996 18.086 3.554 3.347 10.522 10.322 15.484 15.5 4.962 5.178 41.657 41.814 81.544 81.414s81.237 80.325 91.889 90.5c10.652 10.175 25.481 24.8 32.954 32.5 7.473 7.7 18.022 18.275 23.444 23.5 5.421 5.225 18.779 18.435 29.684 29.356 10.905 10.921 20.318 19.692 20.918 19.492.599-.199-8.483-9.797-20.183-21.328a13590.104 13590.104 0 0 1-45.87-45.493c-13.529-13.49-50.852-50.402-82.94-82.027s-70.069-69.204-84.402-83.51c-14.333-14.305-51.935-51.533-83.56-82.728-31.625-31.195-86.075-85.098-121-119.784-34.925-34.687-64.781-64.008-66.346-65.159-2.847-2.092-2.847-2.092-1.3.9m1011.099 1.428c-2.174 2.281-3.278 3.787-2.453 3.348.825-.44 2.329-1.513 3.343-2.386 1.013-.873 2.266-2.379 2.785-3.348.518-.968.793-1.761.61-1.761-.183 0-2.111 1.866-4.285 4.147m-59.492 57.905a110506.001 110506.001 0 0 1-53.989 53.25A91418.543 91418.543 0 0 0 836.41 704a54717.512 54717.512 0 0 1-93.386 92c-26.593 26.125-68.197 67.3-92.454 91.5-24.256 24.2-55.506 55.25-69.445 69-13.939 13.75-34.294 34.094-45.234 45.209-10.94 11.115-19.891 20.681-19.891 21.258 0 .706.573.683 1.75-.071.962-.616 3.1-2.886 4.75-5.043 1.65-2.158 21.856-22.695 44.903-45.638 23.047-22.943 55.897-55.671 73-72.729s39.636-39.108 50.074-49c10.437-9.892 23.487-22.419 29-27.836 5.512-5.418 24.619-24.093 42.459-41.5 17.839-17.408 37.785-37.05 44.324-43.65 6.539-6.6 24.873-25.05 40.744-41 15.87-15.95 44.075-43.9 62.676-62.112 18.601-18.211 35.62-34.905 37.82-37.098 2.2-2.193 10.3-10.454 18-18.359 7.7-7.904 16.411-16.973 19.358-20.151 2.946-3.179 5.179-5.78 4.961-5.78-.218 0-14.554 13.973-31.858 31.052" fill="#131d28" fill-rule="evenodd"/><path d="M498.234 27.25c-7.748 7.838-25.895 26.4-40.327 41.25-14.433 14.85-70.852 71.55-125.376 126s-100.706 100.35-102.626 102c-1.92 1.65-5.384 5.475-7.697 8.5-2.313 3.025-8.558 9.325-13.878 14-5.321 4.675-12.634 11.574-16.252 15.331a2404.458 2404.458 0 0 1-16.114 16.5c-5.245 5.318-18.552 18.444-29.571 29.169-11.019 10.725-21.33 21.236-22.914 23.357-1.584 2.122-4.859 5.369-7.278 7.216-2.42 1.847-28.429 27.216-57.8 56.376C29.03 496.109 5 520.161 5 520.397c0 .237 8.153 8.457 18.118 18.267 9.966 9.81 39.778 39.338 66.25 65.618 26.473 26.281 74.007 73.301 105.632 104.491 31.625 31.189 69.227 68.412 83.56 82.717 14.333 14.306 52.314 51.885 84.402 83.51 32.088 31.625 69.411 68.537 82.94 82.027a13966.803 13966.803 0 0 0 46.126 45.75c11.84 11.672 21.965 21.212 22.5 21.199.534-.013 2.258-1.762 3.829-3.887 1.571-2.125 21.799-22.702 44.951-45.726 23.152-23.025 62.182-61.888 86.734-86.363 24.552-24.475 66.396-65.875 92.987-92a55422.962 55422.962 0 0 0 93.381-92c24.769-24.475 55.339-54.625 67.933-67a13414.722 13414.722 0 0 0 43.534-43c11.35-11.275 32.737-32.301 47.527-46.724 26.89-26.224 26.89-26.224 18.368-35.5-4.687-5.102-46.03-46.401-91.873-91.776L803.187 302.5c-19.449-19.25-59.959-59.681-90.024-89.847-30.065-30.165-57.813-57.925-61.663-61.689-3.85-3.764-28.15-28.121-54-54.129-25.85-26.007-55.242-55.509-65.315-65.56C522.112 21.224 513.521 13 513.095 13c-.427 0-7.114 6.412-14.861 14.25M511 124.127c-1.375 2.24-8.35 9.558-15.5 16.263-7.15 6.704-15.227 14.197-17.949 16.65-2.722 2.453-17.572 17.24-33 32.86-15.428 15.619-74.406 74.794-131.061 131.5C256.834 378.105 200.5 434.625 188.302 447c-12.197 12.375-33.905 34.163-48.239 48.419C125.728 509.674 114 521.674 114 522.085c0 .412.521.922 1.158 1.134.638.213 12.675 11.838 26.75 25.835 14.076 13.997 46.742 46.379 72.592 71.961 25.85 25.583 55.775 55.07 66.5 65.529 10.725 10.458 57.75 56.834 104.5 103.056 46.75 46.222 91.525 90.154 99.5 97.626 7.975 7.472 17.569 17.002 21.32 21.179 3.752 4.177 7.228 7.595 7.725 7.595.497 0 1.555-1.259 2.351-2.798.795-1.539 11.267-12.451 23.271-24.25a54930.806 54930.806 0 0 0 58.329-57.473c20.077-19.811 56.136-55.361 80.13-79 23.994-23.638 47.844-47.017 53-51.952 5.156-4.936 20.399-19.756 33.874-32.935 13.475-13.179 37.1-36.345 52.5-51.482 15.4-15.136 43.575-42.97 62.612-61.854 27.863-27.64 34.297-34.507 33-35.222-.887-.489-31.385-30.734-67.774-67.212a612363.027 612363.027 0 0 0-197.75-198.07C575.215 181.291 516 121.553 516 121.002c0-.551-.562-.99-1.25-.975-.687.015-2.375 1.86-3.75 4.1m-26 173.919c-4.675.423-13.45 1.72-19.5 2.884-6.05 1.164-20.225 5.224-31.5 9.023-11.275 3.798-25.45 9.103-31.5 11.789-6.05 2.685-18.65 9.315-28 14.732-9.35 5.417-19.7 11.648-23 13.846-3.3 2.198-13.711 9.994-23.135 17.325-9.424 7.33-21.349 17.26-26.5 22.066-5.151 4.806-15.606 15.5-23.235 23.764-7.628 8.264-16.437 18.175-19.574 22.025-3.137 3.85-11.099 14.2-17.692 23-6.594 8.8-14.579 20.05-17.745 25-3.166 4.95-9.598 15.483-14.294 23.407-8.536 14.407-8.536 14.407-3.828 24 2.59 5.276 7.241 13.868 10.336 19.093 3.095 5.225 9.699 14.9 14.675 21.5 4.976 6.6 11.482 15.15 14.458 19 2.975 3.85 8.129 10.15 11.452 14 3.324 3.85 6.277 7.225 6.563 7.5.285.275 4.344 4.755 9.019 9.955s9.311 10.286 10.302 11.302c.991 1.015 8.641 8.02 17 15.565 8.359 7.544 17.74 15.734 20.846 18.198 3.107 2.464 13.682 10.161 23.5 17.104 9.819 6.942 23.927 15.982 31.352 20.088 7.425 4.106 17.1 9.168 21.5 11.249 4.4 2.082 12.05 5.322 17 7.2a1046.5 1046.5 0 0 0 17.5 6.431c4.675 1.658 13.9 4.296 20.5 5.862 6.6 1.566 16.725 3.553 22.5 4.416 5.775.863 16.977 2.097 24.894 2.743 11.074.904 18.109.9 30.5-.016 8.858-.656 20.658-2.055 26.222-3.109 5.564-1.054 14.82-3.05 20.571-4.435 5.75-1.386 14.023-3.671 18.384-5.079 4.361-1.408 13.163-4.583 19.561-7.055 6.397-2.472 17.872-7.679 25.5-11.571 7.627-3.892 17.939-9.461 22.915-12.375 4.976-2.915 14.426-9.249 21-14.075 6.574-4.827 16.903-12.945 22.953-18.041 6.05-5.097 13.025-11.146 15.5-13.444 2.475-2.298 8.694-8.229 13.819-13.181 5.126-4.951 11.876-11.992 15-15.646 3.125-3.654 7.326-8.656 9.336-11.115 2.01-2.459 8.103-10.096 13.54-16.971 5.437-6.875 12.606-16.1 15.93-20.5 3.325-4.4 12.206-17.517 19.736-29.149 7.529-11.632 14.354-21.699 15.165-22.372.811-.673 1.464-1.956 1.452-2.851-.012-.896-.946-2.753-2.075-4.128-1.129-1.375-6.857-9.777-12.728-18.672-5.871-8.895-12.452-19.02-14.623-22.5-2.171-3.48-7.62-11.308-12.107-17.394-4.488-6.086-12.131-15.986-16.985-22-4.854-6.014-12.752-15.209-17.552-20.434-4.8-5.225-14.505-15.193-21.567-22.15-7.063-6.958-18.016-17.001-24.341-22.319-6.325-5.317-18.475-14.425-27-20.24-8.525-5.814-22.25-14.206-30.5-18.648-8.25-4.441-19.05-9.825-24-11.964-4.95-2.139-15.063-5.896-22.474-8.35-7.41-2.453-18.26-5.761-24.111-7.352-5.85-1.591-15.312-3.598-21.026-4.46-5.714-.862-16.914-1.997-24.889-2.522-7.975-.525-19.45-.9-25.5-.835-6.05.065-14.825.464-19.5.886m18.5 93.643c-1.65.214-6.825 1.066-11.5 1.892-4.675.827-10.75 2.205-13.5 3.063-2.75.858-9.718 3.405-15.485 5.659-5.894 2.304-14.236 6.608-19.052 9.83-4.712 3.151-12.113 8.799-16.447 12.549S416.534 435.325 412.743 440c-3.792 4.675-8.486 11.334-10.432 14.798-1.945 3.464-5.068 9.928-6.939 14.366-1.872 4.438-4.552 12.063-5.957 16.944-1.639 5.699-3.015 14.219-3.844 23.81-1.058 12.235-1.056 16.751.011 24.985.715 5.528 2.472 14.448 3.902 19.824 1.431 5.375 4.791 14.357 7.467 19.96 2.676 5.602 6.339 12.352 8.14 15 1.801 2.647 6.004 8.182 9.342 12.3 3.337 4.118 8.417 9.785 11.288 12.592 2.872 2.808 9.172 7.92 14 11.359 4.829 3.44 11.704 7.609 15.279 9.266 3.575 1.656 10.008 4.315 14.295 5.91 4.288 1.594 12.163 3.889 17.5 5.101 7.913 1.796 12.844 2.207 26.705 2.225 15.275.02 18.015-.248 27-2.638 5.5-1.463 13.375-3.874 17.5-5.357 4.125-1.484 11.775-4.966 17-7.738 5.225-2.773 11.511-6.405 13.969-8.073 2.458-1.667 8.007-6.411 12.331-10.543 4.324-4.131 10.056-10.268 12.737-13.637 2.681-3.369 7.719-10.818 11.197-16.553 3.478-5.735 7.738-14.472 9.468-19.414 1.73-4.943 3.854-11.529 4.72-14.637.867-3.107 2.102-10.136 2.745-15.619.883-7.525.892-13.277.037-23.451-.623-7.414-2.031-17.513-3.128-22.44-1.098-4.928-3.362-12.533-5.032-16.9-1.671-4.367-5.293-11.73-8.051-16.361-2.758-4.632-6.855-10.807-9.104-13.723-2.249-2.915-7.757-8.929-12.239-13.364-4.483-4.435-11.975-10.794-16.65-14.131-4.675-3.337-13.45-8.447-19.5-11.355-6.05-2.909-13.791-6.03-17.202-6.936-3.411-.905-9.936-2.304-14.5-3.107-4.564-.803-13.248-1.393-19.298-1.312-6.05.082-12.35.324-14 .538m-40.176 59.69c-2.297.751-5.741 2.333-7.653 3.515-1.913 1.183-5.036 3.874-6.94 5.982-1.904 2.107-4.975 6.905-6.824 10.662-2.539 5.157-3.455 8.466-3.74 13.513-.289 5.114.09 7.743 1.615 11.189 1.096 2.478 3.731 6.436 5.855 8.795 2.125 2.36 6.193 5.785 9.041 7.612 2.848 1.827 7.228 3.87 9.734 4.541 3.59.96 5.82.958 10.505-.01 3.272-.676 8.461-2.34 11.533-3.698 3.071-1.358 7.55-4.282 9.953-6.498 2.404-2.215 5.327-6.25 6.495-8.967 1.169-2.716 2.406-7.626 2.749-10.91.362-3.463.133-7.92-.544-10.609-.642-2.551-2.281-6.402-3.642-8.558-1.361-2.155-5.059-5.975-8.218-8.488-3.158-2.513-7.53-5.502-9.714-6.642-2.32-1.212-6.476-2.224-10-2.434-3.414-.205-7.84.231-10.205 1.005" fill="#f3f4e7" fill-rule="evenodd"/></svg>