<?xml version="1.0" standalone="no"?>
<!DOCTYPE svg PUBLIC "-//W3C//DTD SVG 20010904//EN"
 "http://www.w3.org/TR/2001/REC-SVG-20010904/DTD/svg10.dtd">
<svg version="1.0" xmlns="http://www.w3.org/2000/svg"
 width="1024.000000pt" height="1024.000000pt" viewBox="0 0 1024.000000 1024.000000"
 preserveAspectRatio="xMidYMid meet">

<g transform="translate(0.000000,1024.000000) scale(0.100000,-0.100000)"
fill="#000000" stroke="none">
<path d="M5113 9001 c-12 -21 -108 -119 -214 -217 -105 -99 -298 -287 -428
-418 -130 -132 -709 -712 -1286 -1290 -578 -578 -1170 -1172 -1316 -1321 -146
-148 -370 -373 -497 -499 l-231 -229 257 -256 c479 -477 1166 -1156 1377
-1361 116 -113 540 -531 944 -930 404 -399 820 -808 925 -910 104 -102 258
-254 342 -337 83 -84 154 -153 157 -153 4 0 13 13 22 29 8 16 115 128 237 248
123 120 380 374 573 564 192 190 460 453 594 585 133 131 336 331 450 444 114
113 346 340 516 505 355 343 762 743 1247 1224 186 184 344 339 352 343 11 6
-8 30 -81 101 -52 50 -492 490 -977 977 -484 487 -1339 1342 -1898 1900 -560
559 -1018 1021 -1018 1028 0 25 -26 10 -47 -27z m397 -1761 c259 -37 597 -143
840 -265 414 -206 786 -495 1147 -891 168 -184 380 -458 491 -635 98 -157 172
-270 223 -340 49 -67 58 -92 38 -105 -6 -3 -45 -59 -86 -123 -226 -347 -381
-560 -578 -792 -16 -19 -50 -60 -75 -89 -60 -73 -163 -174 -346 -340 -350
-319 -775 -570 -1194 -707 -350 -113 -680 -158 -989 -134 -255 20 -523 72
-676 130 -27 11 -95 36 -150 57 -363 136 -778 401 -1150 734 -180 162 -223
205 -419 430 -235 270 -417 530 -532 763 -40 80 -47 100 -37 115 7 9 46 76 89
147 112 191 172 280 322 480 143 191 181 236 360 435 151 167 302 304 507 464
195 151 223 170 440 296 235 137 319 175 630 280 172 58 333 95 480 110 130
14 512 2 665 -20z"/>
<path d="M5050 6323 c-260 -40 -345 -65 -512 -149 -127 -64 -296 -198 -390
-308 -207 -246 -311 -569 -295 -916 22 -449 329 -899 737 -1079 196 -87 328
-115 550 -115 149 0 175 2 267 27 261 69 452 169 604 314 231 221 376 502 411
800 21 182 -14 452 -82 628 -108 280 -351 539 -635 679 -127 63 -212 90 -339
111 -83 14 -254 18 -316 8z m-213 -611 c65 -34 160 -118 190 -170 25 -42 28
-57 28 -137 0 -76 -4 -99 -26 -145 -33 -70 -78 -113 -154 -149 -167 -78 -268
-63 -398 58 -96 90 -121 195 -76 318 61 162 187 258 329 250 40 -3 81 -12 107
-25z"/>
</g>
</svg>
