<svg xmlns="http://www.w3.org/2000/svg" width="1024" height="1024" viewBox="0 0 1024 1024" version="1.1"><path d="M 478.027 44.113 C 460.687 61.775, 427.755 94.963, 404.845 117.863 C 381.936 140.763, 359.262 163.325, 354.460 168 C 349.659 172.675, 343.336 179.488, 340.409 183.141 C 337.483 186.794, 333.499 190.765, 331.556 191.965 C 329.613 193.166, 326.223 196.716, 324.022 199.853 C 321.821 202.991, 317.823 207.198, 315.138 209.203 C 312.386 211.258, 309.096 214.953, 307.597 217.674 C 305.603 221.294, 321.381 206.009, 370.744 156.500 C 406.937 120.200, 450.263 76.362, 467.025 59.083 C 483.786 41.804, 500.797 24.479, 504.826 20.583 C 508.855 16.687, 512.517 13.367, 512.964 13.204 C 513.411 13.041, 522.040 21.152, 532.138 31.229 C 542.237 41.305, 571.650 70.828, 597.500 96.835 C 623.350 122.843, 647.650 147.215, 651.500 150.997 C 655.350 154.779, 692.700 192.145, 734.500 234.033 C 776.300 275.921, 822.844 322.187, 837.932 336.846 C 853.020 351.506, 900.607 398.604, 943.682 441.508 C 986.757 484.413, 1022 519.198, 1022 518.810 C 1022 518.422, 1019.796 515.493, 1017.102 512.302 C 1014.408 509.111, 997.421 491.764, 979.352 473.754 C 961.283 455.744, 927.375 421.850, 904 398.435 C 880.625 375.020, 856.116 350.830, 849.536 344.681 C 842.956 338.531, 826.316 322.475, 812.560 309 C 798.803 295.525, 751.850 248.950, 708.220 205.500 C 664.590 162.050, 610.020 107.600, 586.953 84.500 C 563.886 61.400, 538.301 35.638, 530.096 27.250 C 517.854 14.734, 514.675 12, 512.367 12 C 509.997 12, 504.599 17.048, 478.027 44.113 M 511 124.127 C 509.625 126.367, 502.650 133.685, 495.500 140.390 C 488.350 147.094, 480.273 154.587, 477.551 157.040 C 474.829 159.493, 459.979 174.280, 444.551 189.900 C 429.123 205.519, 370.145 264.694, 313.490 321.400 C 256.834 378.105, 200.500 434.625, 188.302 447 C 176.105 459.375, 154.397 481.163, 140.063 495.419 C 125.728 509.674, 114 521.674, 114 522.085 C 114 522.497, 114.521 523.007, 115.158 523.219 C 115.796 523.432, 127.833 535.057, 141.908 549.054 C 155.984 563.051, 188.650 595.433, 214.500 621.015 C 240.350 646.598, 270.275 676.085, 281 686.544 C 291.725 697.002, 338.750 743.378, 385.500 789.600 C 432.250 835.822, 477.025 879.754, 485 887.226 C 492.975 894.698, 502.569 904.228, 506.320 908.405 C 510.072 912.582, 513.548 916, 514.045 916 C 514.542 916, 515.600 914.741, 516.396 913.202 C 517.191 911.663, 527.663 900.751, 539.667 888.952 C 551.670 877.153, 577.918 851.291, 597.996 831.479 C 618.073 811.668, 654.132 776.118, 678.126 752.479 C 702.120 728.841, 725.970 705.462, 731.126 700.527 C 736.282 695.591, 751.525 680.771, 765 667.592 C 778.475 654.413, 802.100 631.247, 817.500 616.110 C 832.900 600.974, 861.075 573.140, 880.112 554.256 C 907.975 526.616, 914.409 519.749, 913.112 519.034 C 912.225 518.545, 881.727 488.300, 845.338 451.822 C 808.949 415.345, 719.962 326.213, 647.588 253.752 C 575.215 181.291, 516 121.553, 516 121.002 C 516 120.451, 515.438 120.012, 514.750 120.027 C 514.063 120.042, 512.375 121.887, 511 124.127 M 297 229.500 C 297 229.775, 297.225 230, 297.500 230 C 297.775 230, 298 229.775, 298 229.500 C 298 229.225, 297.775 229, 297.500 229 C 297.225 229, 297 229.225, 297 229.500 M 292.198 232.673 C 290.382 233.568, 288.217 235.613, 287.387 237.218 C 285.967 239.964, 285.985 240.077, 287.689 239.141 C 288.685 238.594, 290.999 236.539, 292.831 234.573 C 294.663 232.608, 296.013 231.010, 295.831 231.023 C 295.649 231.035, 294.014 231.778, 292.198 232.673 M 270.303 253.646 C 267.994 254.991, 265.804 257.083, 265.435 258.296 C 265.065 259.508, 264.072 261.288, 263.227 262.250 C 262.382 263.212, 262.004 264, 262.388 264 C 262.772 264, 265.351 261.881, 268.119 259.292 C 270.887 256.702, 273.584 253.777, 274.111 252.792 C 274.639 251.806, 274.942 251.045, 274.785 251.100 C 274.628 251.155, 272.611 252.301, 270.303 253.646 M 247.775 276.559 C 246.276 277.372, 244.589 278.900, 244.025 279.953 C 243.461 281.007, 243 282.156, 243 282.507 C 243 282.858, 244.207 282.196, 245.682 281.036 C 247.156 279.876, 248.982 278.043, 249.738 276.963 C 250.495 275.883, 250.975 275.018, 250.807 275.040 C 250.638 275.062, 249.274 275.746, 247.775 276.559 M 227.405 298.155 C 226.962 298.870, 227.130 299.038, 227.845 298.595 C 228.480 298.203, 229 297.684, 229 297.441 C 229 297.198, 228.802 297, 228.559 297 C 228.316 297, 227.797 297.520, 227.405 298.155 M 485 298.046 C 480.325 298.469, 471.550 299.766, 465.500 300.930 C 459.450 302.094, 445.275 306.154, 434 309.953 C 422.725 313.751, 408.550 319.056, 402.500 321.742 C 396.450 324.427, 383.850 331.057, 374.500 336.474 C 365.150 341.891, 354.800 348.122, 351.500 350.320 C 348.200 352.518, 337.789 360.314, 328.365 367.645 C 318.941 374.975, 307.016 384.905, 301.865 389.711 C 296.714 394.517, 286.259 405.211, 278.630 413.475 C 271.002 421.739, 262.193 431.650, 259.056 435.500 C 255.919 439.350, 247.957 449.700, 241.364 458.500 C 234.770 467.300, 226.785 478.550, 223.619 483.500 C 220.453 488.450, 214.021 498.983, 209.325 506.907 C 200.789 521.314, 200.789 521.314, 205.497 530.907 C 208.087 536.183, 212.738 544.775, 215.833 550 C 218.928 555.225, 225.532 564.900, 230.508 571.500 C 235.484 578.100, 241.990 586.650, 244.966 590.500 C 247.941 594.350, 253.095 600.650, 256.418 604.500 C 259.742 608.350, 262.695 611.725, 262.981 612 C 263.266 612.275, 267.325 616.755, 272 621.955 C 276.675 627.155, 281.311 632.241, 282.302 633.257 C 283.293 634.272, 290.943 641.277, 299.302 648.822 C 307.661 656.366, 317.042 664.556, 320.148 667.020 C 323.255 669.484, 333.830 677.181, 343.648 684.124 C 353.467 691.066, 367.575 700.106, 375 704.212 C 382.425 708.318, 392.100 713.380, 396.500 715.461 C 400.900 717.543, 408.550 720.783, 413.500 722.661 C 418.450 724.539, 426.325 727.433, 431 729.092 C 435.675 730.750, 444.900 733.388, 451.500 734.954 C 458.100 736.520, 468.225 738.507, 474 739.370 C 479.775 740.233, 490.977 741.467, 498.894 742.113 C 509.968 743.017, 517.003 743.013, 529.394 742.097 C 538.252 741.441, 550.052 740.042, 555.616 738.988 C 561.180 737.934, 570.436 735.938, 576.187 734.553 C 581.937 733.167, 590.210 730.882, 594.571 729.474 C 598.932 728.066, 607.734 724.891, 614.132 722.419 C 620.529 719.947, 632.004 714.740, 639.632 710.848 C 647.259 706.956, 657.571 701.387, 662.547 698.473 C 667.523 695.558, 676.973 689.224, 683.547 684.398 C 690.121 679.571, 700.450 671.453, 706.500 666.357 C 712.550 661.260, 719.525 655.211, 722 652.913 C 724.475 650.615, 730.694 644.684, 735.819 639.732 C 740.945 634.781, 747.695 627.740, 750.819 624.086 C 753.944 620.432, 758.145 615.430, 760.155 612.971 C 762.165 610.512, 768.258 602.875, 773.695 596 C 779.132 589.125, 786.301 579.900, 789.625 575.500 C 792.950 571.100, 801.831 557.983, 809.361 546.351 C 816.890 534.719, 823.715 524.652, 824.526 523.979 C 825.337 523.306, 825.990 522.023, 825.978 521.128 C 825.966 520.232, 825.032 518.375, 823.903 517 C 822.774 515.625, 817.046 507.223, 811.175 498.328 C 805.304 489.433, 798.723 479.308, 796.552 475.828 C 794.381 472.348, 788.932 464.520, 784.445 458.434 C 779.957 452.348, 772.314 442.448, 767.460 436.434 C 762.606 430.420, 754.708 421.225, 749.908 416 C 745.108 410.775, 735.403 400.807, 728.341 393.850 C 721.278 386.892, 710.325 376.849, 704 371.531 C 697.675 366.214, 685.525 357.106, 677 351.291 C 668.475 345.477, 654.750 337.085, 646.500 332.643 C 638.250 328.202, 627.450 322.818, 622.500 320.679 C 617.550 318.540, 607.437 314.783, 600.026 312.329 C 592.616 309.876, 581.766 306.568, 575.915 304.977 C 570.065 303.386, 560.603 301.379, 554.889 300.517 C 549.175 299.655, 537.975 298.520, 530 297.995 C 522.025 297.470, 510.550 297.095, 504.500 297.160 C 498.450 297.225, 489.675 297.624, 485 298.046 M 225 300.500 C 225 300.775, 225.225 301, 225.500 301 C 225.775 301, 226 300.775, 226 300.500 C 226 300.225, 225.775 300, 225.500 300 C 225.225 300, 225 300.225, 225 300.500 M 194 331.500 C 194 331.775, 194.225 332, 194.500 332 C 194.775 332, 195 331.775, 195 331.500 C 195 331.225, 194.775 331, 194.500 331 C 194.225 331, 194 331.225, 194 331.500 M 192 332.500 C 192 332.775, 192.225 333, 192.500 333 C 192.775 333, 193 332.775, 193 332.500 C 193 332.225, 192.775 332, 192.500 332 C 192.225 332, 192 332.225, 192 332.500 M 190 335.500 C 190 335.775, 190.225 336, 190.500 336 C 190.775 336, 191 335.775, 191 335.500 C 191 335.225, 190.775 335, 190.500 335 C 190.225 335, 190 335.225, 190 335.500 M 166.714 358.250 C 162.527 362.238, 155.772 368.666, 151.701 372.536 C 147.630 376.405, 143.735 380.680, 143.045 382.036 C 142.354 383.391, 147.124 379.250, 153.645 372.834 C 160.165 366.418, 167.205 359.719, 169.288 357.947 C 171.372 356.175, 173.525 353.887, 174.073 352.863 C 174.622 351.838, 174.903 351, 174.698 351 C 174.493 351, 170.900 354.262, 166.714 358.250 M 140 384.500 C 140 384.775, 140.225 385, 140.500 385 C 140.775 385, 141 384.775, 141 384.500 C 141 384.225, 140.775 384, 140.500 384 C 140.225 384, 140 384.225, 140 384.500 M 139 386.500 C 139 386.775, 139.225 387, 139.500 387 C 139.775 387, 140 386.775, 140 386.500 C 140 386.225, 139.775 386, 139.500 386 C 139.225 386, 139 386.225, 139 386.500 M 135 390.500 C 135 390.775, 135.225 391, 135.500 391 C 135.775 391, 136 390.775, 136 390.500 C 136 390.225, 135.775 390, 135.500 390 C 135.225 390, 135 390.225, 135 390.500 M 133 391.500 C 133 391.775, 133.225 392, 133.500 392 C 133.775 392, 134 391.775, 134 391.500 C 134 391.225, 133.775 391, 133.500 391 C 133.225 391, 133 391.225, 133 391.500 M 503.500 391.689 C 501.850 391.903, 496.675 392.755, 492 393.581 C 487.325 394.408, 481.250 395.786, 478.500 396.644 C 475.750 397.502, 468.782 400.049, 463.015 402.303 C 457.121 404.607, 448.779 408.911, 443.963 412.133 C 439.251 415.284, 431.850 420.932, 427.516 424.682 C 423.182 428.432, 416.534 435.325, 412.743 440 C 408.951 444.675, 404.257 451.334, 402.311 454.798 C 400.366 458.262, 397.243 464.726, 395.372 469.164 C 393.500 473.602, 390.820 481.227, 389.415 486.108 C 387.776 491.807, 386.400 500.327, 385.571 509.918 C 384.513 522.153, 384.515 526.669, 385.582 534.903 C 386.297 540.431, 388.054 549.351, 389.484 554.727 C 390.915 560.102, 394.275 569.084, 396.951 574.687 C 399.627 580.289, 403.290 587.039, 405.091 589.687 C 406.892 592.334, 411.095 597.869, 414.433 601.987 C 417.770 606.105, 422.850 611.772, 425.721 614.579 C 428.593 617.387, 434.893 622.499, 439.721 625.938 C 444.550 629.378, 451.425 633.547, 455 635.204 C 458.575 636.860, 465.008 639.519, 469.295 641.114 C 473.583 642.708, 481.458 645.003, 486.795 646.215 C 494.708 648.011, 499.639 648.422, 513.500 648.440 C 528.775 648.460, 531.515 648.192, 540.500 645.802 C 546 644.339, 553.875 641.928, 558 640.445 C 562.125 638.961, 569.775 635.479, 575 632.707 C 580.225 629.934, 586.511 626.302, 588.969 624.634 C 591.427 622.967, 596.976 618.223, 601.300 614.091 C 605.624 609.960, 611.356 603.823, 614.037 600.454 C 616.718 597.085, 621.756 589.636, 625.234 583.901 C 628.712 578.166, 632.972 569.429, 634.702 564.487 C 636.432 559.544, 638.556 552.958, 639.422 549.850 C 640.289 546.743, 641.524 539.714, 642.167 534.231 C 643.050 526.706, 643.059 520.954, 642.204 510.780 C 641.581 503.366, 640.173 493.267, 639.076 488.340 C 637.978 483.412, 635.714 475.807, 634.044 471.440 C 632.373 467.073, 628.751 459.710, 625.993 455.079 C 623.235 450.447, 619.138 444.272, 616.889 441.356 C 614.640 438.441, 609.132 432.427, 604.650 427.992 C 600.167 423.557, 592.675 417.198, 588 413.861 C 583.325 410.524, 574.550 405.414, 568.500 402.506 C 562.450 399.597, 554.709 396.476, 551.298 395.570 C 547.887 394.665, 541.362 393.266, 536.798 392.463 C 532.234 391.660, 523.550 391.070, 517.500 391.151 C 511.450 391.233, 505.150 391.475, 503.500 391.689 M 131 394.500 C 131 394.775, 131.225 395, 131.500 395 C 131.775 395, 132 394.775, 132 394.500 C 132 394.225, 131.775 394, 131.500 394 C 131.225 394, 131 394.225, 131 394.500 M 129 395.500 C 129 395.775, 129.225 396, 129.500 396 C 129.775 396, 130 395.775, 130 395.500 C 130 395.225, 129.775 395, 129.500 395 C 129.225 395, 129 395.225, 129 395.500 M 128 397.500 C 128 397.775, 128.225 398, 128.500 398 C 128.775 398, 129 397.775, 129 397.500 C 129 397.225, 128.775 397, 128.500 397 C 128.225 397, 128 397.225, 128 397.500 M 106.768 416.806 C 104.166 418.838, 100.155 422.678, 97.855 425.339 C 95.555 428.001, 91.307 431.926, 88.416 434.062 C 85.525 436.197, 65.462 455.740, 43.830 477.490 C 22.199 499.241, 4.352 517.958, 4.172 519.086 C 3.981 520.273, 26.591 498.545, 57.922 467.430 C 87.665 437.893, 112 413.562, 112 413.363 C 112 413.163, 111.888 413.025, 111.750 413.056 C 111.612 413.086, 109.371 414.774, 106.768 416.806 M 463.324 451.379 C 461.027 452.130, 457.583 453.712, 455.671 454.894 C 453.758 456.077, 450.635 458.768, 448.731 460.876 C 446.827 462.983, 443.756 467.781, 441.907 471.538 C 439.368 476.695, 438.452 480.004, 438.167 485.051 C 437.878 490.165, 438.257 492.794, 439.782 496.240 C 440.878 498.718, 443.513 502.676, 445.637 505.035 C 447.762 507.395, 451.830 510.820, 454.678 512.647 C 457.526 514.474, 461.906 516.517, 464.412 517.188 C 468.002 518.148, 470.232 518.146, 474.917 517.178 C 478.189 516.502, 483.378 514.838, 486.450 513.480 C 489.521 512.122, 494 509.198, 496.403 506.982 C 498.807 504.767, 501.730 500.732, 502.898 498.015 C 504.067 495.299, 505.304 490.389, 505.647 487.105 C 506.009 483.642, 505.780 479.185, 505.103 476.496 C 504.461 473.945, 502.822 470.094, 501.461 467.938 C 500.100 465.783, 496.402 461.963, 493.243 459.450 C 490.085 456.937, 485.713 453.948, 483.529 452.808 C 481.209 451.596, 477.053 450.584, 473.529 450.374 C 470.115 450.169, 465.689 450.605, 463.324 451.379 M 6.354 524.719 C 7.205 526.364, 13.436 532.796, 20.201 539.012 C 26.965 545.228, 46.947 564.756, 64.605 582.407 C 82.263 600.058, 116.465 634.075, 140.610 658 C 164.755 681.925, 190.149 706.900, 197.042 713.500 C 203.935 720.100, 212.483 728.239, 216.038 731.586 C 219.592 734.933, 226.560 741.908, 231.522 747.086 C 236.484 752.264, 273.179 788.900, 313.066 828.500 C 352.953 868.100, 394.303 908.825, 404.955 919 C 415.607 929.175, 430.436 943.800, 437.909 951.500 C 445.382 959.200, 455.931 969.775, 461.353 975 C 466.774 980.225, 480.132 993.435, 491.037 1004.356 C 501.942 1015.277, 511.355 1024.048, 511.955 1023.848 C 512.554 1023.649, 503.472 1014.051, 491.772 1002.520 C 480.073 990.989, 459.431 970.517, 445.902 957.027 C 432.373 943.537, 395.050 906.625, 362.962 875 C 330.874 843.375, 292.893 805.796, 278.560 791.490 C 264.227 777.185, 226.625 739.957, 195 708.762 C 163.375 677.567, 108.925 623.664, 74 588.978 C 39.075 554.291, 9.219 524.970, 7.654 523.819 C 4.807 521.727, 4.807 521.727, 6.354 524.719 M 1017.453 526.147 C 1015.279 528.428, 1014.175 529.934, 1015 529.495 C 1015.825 529.055, 1017.329 527.982, 1018.343 527.109 C 1019.356 526.236, 1020.609 524.730, 1021.128 523.761 C 1021.646 522.793, 1021.921 522, 1021.738 522 C 1021.555 522, 1019.627 523.866, 1017.453 526.147 M 957.961 584.052 C 940.658 601.131, 916.362 625.093, 903.972 637.302 C 891.582 649.511, 861.179 679.525, 836.410 704 C 811.641 728.475, 769.617 769.875, 743.024 796 C 716.431 822.125, 674.827 863.300, 650.570 887.500 C 626.314 911.700, 595.064 942.750, 581.125 956.500 C 567.186 970.250, 546.831 990.594, 535.891 1001.709 C 524.951 1012.824, 516 1022.390, 516 1022.967 C 516 1023.673, 516.573 1023.650, 517.750 1022.896 C 518.712 1022.280, 520.850 1020.010, 522.500 1017.853 C 524.150 1015.695, 544.356 995.158, 567.403 972.215 C 590.450 949.272, 623.300 916.544, 640.403 899.486 C 657.506 882.428, 680.039 860.378, 690.477 850.486 C 700.914 840.594, 713.964 828.067, 719.477 822.650 C 724.989 817.232, 744.096 798.557, 761.936 781.150 C 779.775 763.742, 799.721 744.100, 806.260 737.500 C 812.799 730.900, 831.133 712.450, 847.004 696.500 C 862.874 680.550, 891.079 652.600, 909.680 634.388 C 928.281 616.177, 945.300 599.483, 947.500 597.290 C 949.700 595.097, 957.800 586.836, 965.500 578.931 C 973.200 571.027, 981.911 561.958, 984.858 558.780 C 987.804 555.601, 990.037 553, 989.819 553 C 989.601 553, 975.265 566.973, 957.961 584.052" stroke="none" fill="#131d28" fill-rule="evenodd"/><path d="M 498.234 27.250 C 490.486 35.088, 472.339 53.650, 457.907 68.500 C 443.474 83.350, 387.055 140.050, 332.531 194.500 C 278.007 248.950, 231.825 294.850, 229.905 296.500 C 227.985 298.150, 224.521 301.975, 222.208 305 C 219.895 308.025, 213.650 314.325, 208.330 319 C 203.009 323.675, 195.696 330.574, 192.078 334.331 C 188.460 338.088, 181.209 345.513, 175.964 350.831 C 170.719 356.149, 157.412 369.275, 146.393 380 C 135.374 390.725, 125.063 401.236, 123.479 403.357 C 121.895 405.479, 118.620 408.726, 116.201 410.573 C 113.781 412.420, 87.772 437.789, 58.401 466.949 C 29.030 496.109, 5 520.161, 5 520.397 C 5 520.634, 13.153 528.854, 23.118 538.664 C 33.084 548.474, 62.896 578.002, 89.368 604.282 C 115.841 630.563, 163.375 677.583, 195 708.773 C 226.625 739.962, 264.227 777.185, 278.560 791.490 C 292.893 805.796, 330.874 843.375, 362.962 875 C 395.050 906.625, 432.373 943.537, 445.902 957.027 C 459.431 970.516, 480.187 991.104, 492.028 1002.777 C 503.868 1014.449, 513.993 1023.989, 514.528 1023.976 C 515.062 1023.963, 516.786 1022.214, 518.357 1020.089 C 519.928 1017.964, 540.156 997.387, 563.308 974.363 C 586.460 951.338, 625.490 912.475, 650.042 888 C 674.594 863.525, 716.438 822.125, 743.029 796 C 769.620 769.875, 811.641 728.475, 836.410 704 C 861.179 679.525, 891.749 649.375, 904.343 637 C 916.938 624.625, 936.528 605.275, 947.877 594 C 959.227 582.725, 980.614 561.699, 995.404 547.276 C 1022.294 521.052, 1022.294 521.052, 1013.772 511.776 C 1009.085 506.674, 967.742 465.375, 921.899 420 C 876.055 374.625, 822.635 321.750, 803.187 302.500 C 783.738 283.250, 743.228 242.819, 713.163 212.653 C 683.098 182.488, 655.350 154.728, 651.500 150.964 C 647.650 147.200, 623.350 122.843, 597.500 96.835 C 571.650 70.828, 542.258 41.326, 532.185 31.275 C 522.112 21.224, 513.521 13, 513.095 13 C 512.668 13, 505.981 19.412, 498.234 27.250 M 511 124.127 C 509.625 126.367, 502.650 133.685, 495.500 140.390 C 488.350 147.094, 480.273 154.587, 477.551 157.040 C 474.829 159.493, 459.979 174.280, 444.551 189.900 C 429.123 205.519, 370.145 264.694, 313.490 321.400 C 256.834 378.105, 200.500 434.625, 188.302 447 C 176.105 459.375, 154.397 481.163, 140.063 495.419 C 125.728 509.674, 114 521.674, 114 522.085 C 114 522.497, 114.521 523.007, 115.158 523.219 C 115.796 523.432, 127.833 535.057, 141.908 549.054 C 155.984 563.051, 188.650 595.433, 214.500 621.015 C 240.350 646.598, 270.275 676.085, 281 686.544 C 291.725 697.002, 338.750 743.378, 385.500 789.600 C 432.250 835.822, 477.025 879.754, 485 887.226 C 492.975 894.698, 502.569 904.228, 506.320 908.405 C 510.072 912.582, 513.548 916, 514.045 916 C 514.542 916, 515.600 914.741, 516.396 913.202 C 517.191 911.663, 527.663 900.751, 539.667 888.952 C 551.670 877.153, 577.918 851.291, 597.996 831.479 C 618.073 811.668, 654.132 776.118, 678.126 752.479 C 702.120 728.841, 725.970 705.462, 731.126 700.527 C 736.282 695.591, 751.525 680.771, 765 667.592 C 778.475 654.413, 802.100 631.247, 817.500 616.110 C 832.900 600.974, 861.075 573.140, 880.112 554.256 C 907.975 526.616, 914.409 519.749, 913.112 519.034 C 912.225 518.545, 881.727 488.300, 845.338 451.822 C 808.949 415.345, 719.962 326.213, 647.588 253.752 C 575.215 181.291, 516 121.553, 516 121.002 C 516 120.451, 515.438 120.012, 514.750 120.027 C 514.063 120.042, 512.375 121.887, 511 124.127 M 485 298.046 C 480.325 298.469, 471.550 299.766, 465.500 300.930 C 459.450 302.094, 445.275 306.154, 434 309.953 C 422.725 313.751, 408.550 319.056, 402.500 321.742 C 396.450 324.427, 383.850 331.057, 374.500 336.474 C 365.150 341.891, 354.800 348.122, 351.500 350.320 C 348.200 352.518, 337.789 360.314, 328.365 367.645 C 318.941 374.975, 307.016 384.905, 301.865 389.711 C 296.714 394.517, 286.259 405.211, 278.630 413.475 C 271.002 421.739, 262.193 431.650, 259.056 435.500 C 255.919 439.350, 247.957 449.700, 241.364 458.500 C 234.770 467.300, 226.785 478.550, 223.619 483.500 C 220.453 488.450, 214.021 498.983, 209.325 506.907 C 200.789 521.314, 200.789 521.314, 205.497 530.907 C 208.087 536.183, 212.738 544.775, 215.833 550 C 218.928 555.225, 225.532 564.900, 230.508 571.500 C 235.484 578.100, 241.990 586.650, 244.966 590.500 C 247.941 594.350, 253.095 600.650, 256.418 604.500 C 259.742 608.350, 262.695 611.725, 262.981 612 C 263.266 612.275, 267.325 616.755, 272 621.955 C 276.675 627.155, 281.311 632.241, 282.302 633.257 C 283.293 634.272, 290.943 641.277, 299.302 648.822 C 307.661 656.366, 317.042 664.556, 320.148 667.020 C 323.255 669.484, 333.830 677.181, 343.648 684.124 C 353.467 691.066, 367.575 700.106, 375 704.212 C 382.425 708.318, 392.100 713.380, 396.500 715.461 C 400.900 717.543, 408.550 720.783, 413.500 722.661 C 418.450 724.539, 426.325 727.433, 431 729.092 C 435.675 730.750, 444.900 733.388, 451.500 734.954 C 458.100 736.520, 468.225 738.507, 474 739.370 C 479.775 740.233, 490.977 741.467, 498.894 742.113 C 509.968 743.017, 517.003 743.013, 529.394 742.097 C 538.252 741.441, 550.052 740.042, 555.616 738.988 C 561.180 737.934, 570.436 735.938, 576.187 734.553 C 581.937 733.167, 590.210 730.882, 594.571 729.474 C 598.932 728.066, 607.734 724.891, 614.132 722.419 C 620.529 719.947, 632.004 714.740, 639.632 710.848 C 647.259 706.956, 657.571 701.387, 662.547 698.473 C 667.523 695.558, 676.973 689.224, 683.547 684.398 C 690.121 679.571, 700.450 671.453, 706.500 666.357 C 712.550 661.260, 719.525 655.211, 722 652.913 C 724.475 650.615, 730.694 644.684, 735.819 639.732 C 740.945 634.781, 747.695 627.740, 750.819 624.086 C 753.944 620.432, 758.145 615.430, 760.155 612.971 C 762.165 610.512, 768.258 602.875, 773.695 596 C 779.132 589.125, 786.301 579.900, 789.625 575.500 C 792.950 571.100, 801.831 557.983, 809.361 546.351 C 816.890 534.719, 823.715 524.652, 824.526 523.979 C 825.337 523.306, 825.990 522.023, 825.978 521.128 C 825.966 520.232, 825.032 518.375, 823.903 517 C 822.774 515.625, 817.046 507.223, 811.175 498.328 C 805.304 489.433, 798.723 479.308, 796.552 475.828 C 794.381 472.348, 788.932 464.520, 784.445 458.434 C 779.957 452.348, 772.314 442.448, 767.460 436.434 C 762.606 430.420, 754.708 421.225, 749.908 416 C 745.108 410.775, 735.403 400.807, 728.341 393.850 C 721.278 386.892, 710.325 376.849, 704 371.531 C 697.675 366.214, 685.525 357.106, 677 351.291 C 668.475 345.477, 654.750 337.085, 646.500 332.643 C 638.250 328.202, 627.450 322.818, 622.500 320.679 C 617.550 318.540, 607.437 314.783, 600.026 312.329 C 592.616 309.876, 581.766 306.568, 575.915 304.977 C 570.065 303.386, 560.603 301.379, 554.889 300.517 C 549.175 299.655, 537.975 298.520, 530 297.995 C 522.025 297.470, 510.550 297.095, 504.500 297.160 C 498.450 297.225, 489.675 297.624, 485 298.046 M 503.500 391.689 C 501.850 391.903, 496.675 392.755, 492 393.581 C 487.325 394.408, 481.250 395.786, 478.500 396.644 C 475.750 397.502, 468.782 400.049, 463.015 402.303 C 457.121 404.607, 448.779 408.911, 443.963 412.133 C 439.251 415.284, 431.850 420.932, 427.516 424.682 C 423.182 428.432, 416.534 435.325, 412.743 440 C 408.951 444.675, 404.257 451.334, 402.311 454.798 C 400.366 458.262, 397.243 464.726, 395.372 469.164 C 393.500 473.602, 390.820 481.227, 389.415 486.108 C 387.776 491.807, 386.400 500.327, 385.571 509.918 C 384.513 522.153, 384.515 526.669, 385.582 534.903 C 386.297 540.431, 388.054 549.351, 389.484 554.727 C 390.915 560.102, 394.275 569.084, 396.951 574.687 C 399.627 580.289, 403.290 587.039, 405.091 589.687 C 406.892 592.334, 411.095 597.869, 414.433 601.987 C 417.770 606.105, 422.850 611.772, 425.721 614.579 C 428.593 617.387, 434.893 622.499, 439.721 625.938 C 444.550 629.378, 451.425 633.547, 455 635.204 C 458.575 636.860, 465.008 639.519, 469.295 641.114 C 473.583 642.708, 481.458 645.003, 486.795 646.215 C 494.708 648.011, 499.639 648.422, 513.500 648.440 C 528.775 648.460, 531.515 648.192, 540.500 645.802 C 546 644.339, 553.875 641.928, 558 640.445 C 562.125 638.961, 569.775 635.479, 575 632.707 C 580.225 629.934, 586.511 626.302, 588.969 624.634 C 591.427 622.967, 596.976 618.223, 601.300 614.091 C 605.624 609.960, 611.356 603.823, 614.037 600.454 C 616.718 597.085, 621.756 589.636, 625.234 583.901 C 628.712 578.166, 632.972 569.429, 634.702 564.487 C 636.432 559.544, 638.556 552.958, 639.422 549.850 C 640.289 546.743, 641.524 539.714, 642.167 534.231 C 643.050 526.706, 643.059 520.954, 642.204 510.780 C 641.581 503.366, 640.173 493.267, 639.076 488.340 C 637.978 483.412, 635.714 475.807, 634.044 471.440 C 632.373 467.073, 628.751 459.710, 625.993 455.079 C 623.235 450.447, 619.138 444.272, 616.889 441.356 C 614.640 438.441, 609.132 432.427, 604.650 427.992 C 600.167 423.557, 592.675 417.198, 588 413.861 C 583.325 410.524, 574.550 405.414, 568.500 402.506 C 562.450 399.597, 554.709 396.476, 551.298 395.570 C 547.887 394.665, 541.362 393.266, 536.798 392.463 C 532.234 391.660, 523.550 391.070, 517.500 391.151 C 511.450 391.233, 505.150 391.475, 503.500 391.689 M 463.324 451.379 C 461.027 452.130, 457.583 453.712, 455.671 454.894 C 453.758 456.077, 450.635 458.768, 448.731 460.876 C 446.827 462.983, 443.756 467.781, 441.907 471.538 C 439.368 476.695, 438.452 480.004, 438.167 485.051 C 437.878 490.165, 438.257 492.794, 439.782 496.240 C 440.878 498.718, 443.513 502.676, 445.637 505.035 C 447.762 507.395, 451.830 510.820, 454.678 512.647 C 457.526 514.474, 461.906 516.517, 464.412 517.188 C 468.002 518.148, 470.232 518.146, 474.917 517.178 C 478.189 516.502, 483.378 514.838, 486.450 513.480 C 489.521 512.122, 494 509.198, 496.403 506.982 C 498.807 504.767, 501.730 500.732, 502.898 498.015 C 504.067 495.299, 505.304 490.389, 505.647 487.105 C 506.009 483.642, 505.780 479.185, 505.103 476.496 C 504.461 473.945, 502.822 470.094, 501.461 467.938 C 500.100 465.783, 496.402 461.963, 493.243 459.450 C 490.085 456.937, 485.713 453.948, 483.529 452.808 C 481.209 451.596, 477.053 450.584, 473.529 450.374 C 470.115 450.169, 465.689 450.605, 463.324 451.379" stroke="none" fill="#f3f4e7" fill-rule="evenodd"/></svg>